<svg width="28" height="28" viewBox="0 0 28 28" fill="none" xmlns="http://www.w3.org/2000/svg">
<circle cx="14" cy="14" r="14" fill="white"/>
<path d="M17.0966 7.33574C17.1681 7.26016 17.2239 7.17125 17.261 7.07409C17.298 6.97693 17.3156 6.87342 17.3127 6.76947C17.3097 6.66552 17.2863 6.56317 17.2438 6.46826C17.2013 6.37335 17.1406 6.28774 17.065 6.21632C16.9894 6.1449 16.9005 6.08906 16.8033 6.052C16.7062 6.01494 16.6027 5.99738 16.4987 6.00032C16.3948 6.00326 16.2924 6.02664 16.1975 6.06914C16.1026 6.11163 16.017 6.17241 15.9456 6.24799L9.2164 13.373C9.07743 13.52 9 13.7146 9 13.9169C9 14.1191 9.07743 14.3138 9.2164 14.4607L15.9456 21.5865C16.0165 21.6638 16.1021 21.7261 16.1974 21.77C16.2926 21.8139 16.3956 21.8384 16.5005 21.8421C16.6053 21.8459 16.7098 21.8287 16.8079 21.7917C16.906 21.7547 16.9958 21.6986 17.0721 21.6266C17.1484 21.5546 17.2095 21.4681 17.2521 21.3723C17.2947 21.2764 17.3178 21.1731 17.3201 21.0682C17.3223 20.9633 17.3038 20.8591 17.2654 20.7615C17.2271 20.6639 17.1697 20.5748 17.0966 20.4996L10.8805 13.9169L17.0966 7.33574Z" fill="#15412E"/>
</svg>
