<svg width="216" height="72" viewBox="0 0 216 72" fill="none" xmlns="http://www.w3.org/2000/svg">
<path d="M61.9009 22.5649L44.3679 7.36334L36.7672 0.77002L29.1638 7.36334L19.8355 15.452V11.1664H20.7771V7.42663H11.4383V11.1664H12.3798V21.9161L11.6308 22.5649L0.825684 31.9353L4.86079 35.435L6.53286 36.8856L11.6308 32.4628L36.7672 10.6679L55.2416 26.6897C56.8214 52.786 45.5257 66.0333 11.6308 70.3427C50.4232 71.7405 62.6499 58.0132 63.3224 33.6944L67.0015 36.8856L68.6709 35.435L72.706 31.9353L61.9009 22.5649Z" fill="#5A9416"/>
<mask id="mask0_1_658" style="mask-type:luminance" maskUnits="userSpaceOnUse" x="0" y="0" width="74" height="72">
<path d="M0 0H73.4232V71.5665H0V0Z" fill="white"/>
</mask>
<g mask="url(#mask0_1_658)">
<path d="M36.7669 9.90853C36.9436 9.90853 37.1203 9.96919 37.2628 10.0931L55.7399 26.1149C55.8928 26.2494 55.9878 26.4393 56.001 26.6424C56.837 40.4699 54.0678 50.1858 47.2846 57.2143C41.5827 63.1245 33.0589 67.1438 20.8296 69.6202C49.3575 68.7262 61.8954 57.8235 62.5626 33.6735C62.5705 33.3781 62.7472 33.117 63.0163 32.9983C63.2826 32.8796 63.5965 32.9271 63.818 33.1196L67.0013 35.8783L71.548 31.9355L36.7669 1.77765L20.3311 16.0271C20.107 16.2223 19.7905 16.2671 19.5188 16.1432C19.2472 16.0219 19.0758 15.7502 19.0758 15.4522V11.1665C19.0758 10.7472 19.416 10.407 19.8353 10.407H20.0173V8.18636H12.1976V10.407H12.3796C12.7989 10.407 13.1391 10.7472 13.1391 11.1665V21.9163C13.1391 22.1378 13.0442 22.3462 12.878 22.4912L1.98589 31.9355L6.53264 35.8783L36.2685 10.0931C36.4109 9.96919 36.5876 9.90853 36.7669 9.90853ZM16.871 71.2C15.1752 71.2 13.4029 71.1657 11.6042 71.1024C11.2086 71.0892 10.8895 70.7728 10.8737 70.3772C10.8552 69.9842 11.1427 69.6413 11.5357 69.5912C28.4093 67.4444 39.4201 63.1746 46.1928 56.1593C52.6067 49.5106 55.252 40.2562 54.503 27.0538L36.7669 11.6729L7.02846 37.458C6.74363 37.706 6.31902 37.706 6.03419 37.458L0.327013 32.5104C0.160862 32.3654 0.065918 32.157 0.065918 31.9355C0.065918 31.7166 0.160862 31.5082 0.327013 31.3632L11.62 21.5708V11.9261H11.4381C11.0187 11.9261 10.6785 11.5885 10.6785 11.1665V7.42681C10.6785 7.00747 11.0187 6.66726 11.4381 6.66726H20.7768C21.1962 6.66726 21.5364 7.00747 21.5364 7.42681V11.1665C21.5364 11.5885 21.1962 11.9261 20.7768 11.9261H20.5949V13.788L36.2685 0.197895C36.5533 -0.0500144 36.9779 -0.0500144 37.2628 0.197895L73.2042 31.3632C73.3704 31.5082 73.4653 31.7166 73.4653 31.9355C73.4653 32.157 73.3704 32.3654 73.2042 32.5104L67.4997 37.458C67.2122 37.706 66.7876 37.706 66.5028 37.458L64.0184 35.306C63.7494 40.7679 62.8844 45.4201 61.3811 49.4816C59.5983 54.2974 56.9741 58.1742 53.3557 61.3364C45.755 67.9745 33.8211 71.2 16.871 71.2Z" fill="white"/>
</g>
<path d="M14.2388 34.9498V65.0127L18.3662 64.3507V31.9248L14.2388 34.9498Z" fill="white"/>
<path d="M14.9986 35.3348V64.1213L17.6069 63.7046V33.4228L14.9986 35.3348ZM14.239 65.7722C14.0597 65.7722 13.8856 65.7089 13.7459 65.5903C13.5771 65.4452 13.4795 65.2342 13.4795 65.0127V34.9498C13.4795 34.7072 13.5955 34.4804 13.7907 34.3353L17.9181 31.3129C18.1502 31.1441 18.4561 31.1178 18.7119 31.247C18.9651 31.3762 19.126 31.64 19.126 31.9248V64.3507C19.126 64.7252 18.857 65.0417 18.4878 65.1023L14.3604 65.7617C14.3182 65.767 14.2786 65.7722 14.239 65.7722Z" fill="white"/>
<mask id="mask1_1_658" style="mask-type:luminance" maskUnits="userSpaceOnUse" x="22" y="21" width="30" height="37">
<path d="M22.0557 21.605H51.0874V57.3882H22.0557V21.605Z" fill="white"/>
</mask>
<g mask="url(#mask1_1_658)">
<mask id="mask2_1_658" style="mask-type:luminance" maskUnits="userSpaceOnUse" x="16" y="17" width="42" height="52">
<path d="M26.6181 17.2244L57.6647 24.5535L47.1946 68.9081L16.1479 61.5789L26.6181 17.2244Z" fill="white"/>
</mask>
<g mask="url(#mask2_1_658)">
<mask id="mask3_1_658" style="mask-type:luminance" maskUnits="userSpaceOnUse" x="15" y="17" width="43" height="52">
<path d="M57.4406 24.5008L26.394 17.1716L15.9238 61.5262L46.9731 68.8553L57.4406 24.5008Z" fill="white"/>
</mask>
<g mask="url(#mask3_1_658)">
<mask id="mask4_1_658" style="mask-type:luminance" maskUnits="userSpaceOnUse" x="15" y="17" width="43" height="52">
<path d="M57.4406 24.5008L26.394 17.1716L15.9238 61.5262L46.9731 68.8553L57.4406 24.5008Z" fill="white"/>
</mask>
<g mask="url(#mask4_1_658)">
<path d="M24.5953 38.3572C19.2204 47.5588 25.7794 56.9424 25.7794 56.9424C25.7794 56.9424 39.9735 59.1736 46.3268 48.495C55.3649 33.3093 46.6037 21.9451 46.6037 21.9451C46.6037 21.9451 46.2081 25.8298 41.5005 27.8474C35.8698 30.2632 29.3767 30.1683 24.5953 38.3572Z" fill="#80CC28"/>
</g>
</g>
</g>
</g>
<mask id="mask5_1_658" style="mask-type:luminance" maskUnits="userSpaceOnUse" x="22" y="24" width="26" height="41">
<path d="M22.0557 24.9807H47.7116V64.1397H22.0557V24.9807Z" fill="white"/>
</mask>
<g mask="url(#mask5_1_658)">
<mask id="mask6_1_658" style="mask-type:luminance" maskUnits="userSpaceOnUse" x="16" y="17" width="42" height="52">
<path d="M26.6181 17.2244L57.6647 24.5535L47.1946 68.9081L16.1479 61.5789L26.6181 17.2244Z" fill="white"/>
</mask>
<g mask="url(#mask6_1_658)">
<mask id="mask7_1_658" style="mask-type:luminance" maskUnits="userSpaceOnUse" x="15" y="17" width="43" height="52">
<path d="M57.4406 24.5008L26.394 17.1716L15.9238 61.5262L46.9731 68.8553L57.4406 24.5008Z" fill="white"/>
</mask>
<g mask="url(#mask7_1_658)">
<mask id="mask8_1_658" style="mask-type:luminance" maskUnits="userSpaceOnUse" x="15" y="17" width="43" height="52">
<path d="M57.4406 24.5008L26.394 17.1716L15.9238 61.5262L46.9731 68.8553L57.4406 24.5008Z" fill="white"/>
</mask>
<g mask="url(#mask8_1_658)">
<path d="M24.8672 63.6201C24.8672 63.6201 24.5665 56.225 31.8956 46.2955C36.6534 39.8499 40.2454 39.9791 44.4783 34.7018C48.0809 30.2131 47.055 25.5107 47.055 25.5107C47.055 25.5107 47.5825 29.5617 44.1988 33.8895C41.2977 37.5976 35.6169 38.0222 30.9963 43.3971C24.8302 50.5733 22.4355 62.196 22.4355 62.196L24.8672 63.6201Z" fill="#6CAD21"/>
</g>
</g>
</g>
</g>
<mask id="mask9_1_658" style="mask-type:luminance" maskUnits="userSpaceOnUse" x="27" y="47" width="21" height="16">
<path d="M27.457 47.261H47.0365V62.1144H27.457V47.261Z" fill="white"/>
</mask>
<g mask="url(#mask9_1_658)">
<mask id="mask10_1_658" style="mask-type:luminance" maskUnits="userSpaceOnUse" x="21" y="40" width="31" height="31">
<path d="M38.1117 40.0979L51.3564 51.0956L35.1817 70.5748L21.937 59.5772L38.1117 40.0979Z" fill="white"/>
</mask>
<g mask="url(#mask10_1_658)">
<mask id="mask11_1_658" style="mask-type:luminance" maskUnits="userSpaceOnUse" x="22" y="40" width="30" height="31">
<path d="M51.4775 51.1983L38.2328 40.198L22.0581 59.6773L35.3028 70.6749L51.4775 51.1983Z" fill="white"/>
</mask>
<g mask="url(#mask11_1_658)">
<path d="M32.0061 50.1064C27.1086 53.3476 28 59.5533 28 59.5533C28 59.5533 34.3876 64.0763 40.1264 60.3445C48.289 55.0382 46.8094 47.324 46.8094 47.324C46.8094 47.324 45.6596 49.1437 42.8613 49.004C39.5119 48.8352 36.363 47.2238 32.0061 50.1064Z" fill="#5A9416"/>
</g>
</g>
</g>
<mask id="mask12_1_658" style="mask-type:luminance" maskUnits="userSpaceOnUse" x="24" y="48" width="23" height="15">
<path d="M24.7568 48.6113H46.3618V62.7896H24.7568V48.6113Z" fill="white"/>
</mask>
<g mask="url(#mask12_1_658)">
<mask id="mask13_1_658" style="mask-type:luminance" maskUnits="userSpaceOnUse" x="21" y="40" width="31" height="31">
<path d="M38.1122 40.0981L51.3569 51.0958L35.1822 70.5751L21.9375 59.5774L38.1122 40.0981Z" fill="white"/>
</mask>
<g mask="url(#mask13_1_658)">
<mask id="mask14_1_658" style="mask-type:luminance" maskUnits="userSpaceOnUse" x="22" y="40" width="30" height="31">
<path d="M51.478 51.1985L38.2333 40.1982L22.0586 59.6775L35.3032 70.6752L51.478 51.1985Z" fill="white"/>
</mask>
<g mask="url(#mask14_1_658)">
<path d="M25.909 62.6233C25.909 62.6233 27.5837 58.9073 33.6153 55.7794C37.5317 53.7513 39.2539 54.6797 42.627 53.0999C45.4938 51.7549 46.1505 49.1914 46.1505 49.1914C46.1505 49.1914 45.412 51.3145 42.6877 52.6331C40.3563 53.7593 37.4737 52.5988 33.8922 54.1364C29.1081 56.1856 25.0703 61.3363 25.0703 61.3363L25.909 62.6233Z" fill="#6CAD21"/>
</g>
</g>
</g>
<path d="M83.9106 18.2732H92.5083C94.5549 18.2732 96.3641 18.6688 97.9412 19.4547C99.5157 20.2354 100.739 21.3378 101.612 22.7566C102.491 24.1782 102.931 25.8344 102.931 27.7254C102.931 29.619 102.491 31.2752 101.612 32.6941C100.739 34.1156 99.5157 35.2207 97.9412 36.0066C96.3641 36.7872 94.5549 37.1775 92.5083 37.1775H83.9106V18.2732ZM92.2868 33.5908C94.1778 33.5908 95.6863 33.0633 96.8124 32.0084C97.9359 30.9535 98.5003 29.5267 98.5003 27.7254C98.5003 25.9267 97.9359 24.4973 96.8124 23.4424C95.6863 22.3874 94.1778 21.86 92.2868 21.86H88.2886V33.5908H92.2868Z" fill="white"/>
<path d="M105.92 22.6511H110.14V37.1775H105.92V22.6511ZM108.03 20.6256C107.255 20.6256 106.627 20.4015 106.142 19.9505C105.657 19.5021 105.414 18.943 105.414 18.2731C105.414 17.6059 105.657 17.0468 106.142 16.5958C106.627 16.1475 107.255 15.9207 108.03 15.9207C108.803 15.9207 109.433 16.1396 109.919 16.5747C110.404 17.0046 110.647 17.5426 110.647 18.1888C110.647 18.8929 110.404 19.4758 109.919 19.9399C109.433 20.3988 108.803 20.6256 108.03 20.6256Z" fill="white"/>
<path d="M122.878 22.4294C124.677 22.4294 126.13 22.9727 127.235 24.054C128.345 25.1301 128.902 26.7336 128.902 28.8645V37.1774H124.693V29.508C124.693 28.3555 124.439 27.4984 123.933 26.934C123.432 26.3643 122.704 26.0795 121.749 26.0795C120.686 26.0795 119.84 26.4118 119.207 27.0711C118.579 27.7252 118.268 28.701 118.268 29.9933V37.1774H114.048V22.651H118.078V24.3494C118.632 23.7376 119.326 23.2681 120.156 22.9358C120.985 22.5982 121.892 22.4294 122.878 22.4294Z" fill="white"/>
<path d="M139.628 37.3884C138.093 37.3884 136.719 37.0719 135.503 36.4389C134.285 35.8007 133.336 34.9145 132.655 33.7805C131.972 32.6412 131.632 31.3515 131.632 29.9089C131.632 28.4742 131.972 27.1925 132.655 26.0584C133.336 24.9191 134.285 24.0303 135.503 23.3894C136.719 22.7512 138.093 22.4294 139.628 22.4294C141.153 22.4294 142.519 22.7512 143.721 23.3894C144.929 24.0303 145.876 24.9191 146.559 26.0584C147.247 27.1925 147.593 28.4742 147.593 29.9089C147.593 31.3515 147.247 32.6412 146.559 33.7805C145.876 34.9145 144.929 35.8007 143.721 36.4389C142.519 37.0719 141.153 37.3884 139.628 37.3884ZM139.628 33.9387C140.704 33.9387 141.585 33.5748 142.276 32.8416C142.972 32.1111 143.32 31.1326 143.32 29.9089C143.32 28.6852 142.972 27.712 142.276 26.9867C141.585 26.2562 140.704 25.8896 139.628 25.8896C138.544 25.8896 137.65 26.2562 136.949 26.9867C136.245 27.712 135.894 28.6852 135.894 29.9089C135.894 31.1326 136.245 32.1111 136.949 32.8416C137.65 33.5748 138.544 33.9387 139.628 33.9387Z" fill="white"/>
<path d="M98.5531 61.5147V65.0276H83.9106V46.1233H98.205V49.6362H88.2675V53.7399H97.0445V57.1368H88.2675V61.5147H98.5531Z" fill="white"/>
<path d="M108.761 65.2387C107.212 65.2387 105.82 64.9222 104.583 64.2893C103.351 63.651 102.389 62.7649 101.693 61.6308C101.002 60.4915 100.659 59.2019 100.659 57.7592C100.659 56.3245 101.002 55.0428 101.693 53.9087C102.389 52.7694 103.351 51.8806 104.583 51.2398C105.82 50.6015 107.212 50.2798 108.761 50.2798C110.293 50.2798 111.63 50.6015 112.769 51.2398C113.914 51.8806 114.747 52.7958 115.269 53.9826L111.999 55.7338C111.245 54.4046 110.156 53.74 108.729 53.74C107.632 53.74 106.719 54.1039 105.997 54.8265C105.279 55.5439 104.921 56.5223 104.921 57.7592C104.921 59.0041 105.279 59.9904 105.997 60.713C106.719 61.4304 107.632 61.7891 108.729 61.7891C110.169 61.7891 111.261 61.1218 111.999 59.7847L115.269 61.5675C114.747 62.7227 113.914 63.622 112.769 64.2682C111.63 64.9169 110.293 65.2387 108.761 65.2387Z" fill="white"/>
<path d="M124.614 65.2387C123.079 65.2387 121.705 64.9222 120.489 64.2893C119.271 63.651 118.321 62.7649 117.641 61.6308C116.958 60.4915 116.618 59.2019 116.618 57.7592C116.618 56.3245 116.958 55.0428 117.641 53.9087C118.321 52.7694 119.271 51.8806 120.489 51.2398C121.705 50.6015 123.079 50.2798 124.614 50.2798C126.138 50.2798 127.505 50.6015 128.707 51.2398C129.915 51.8806 130.862 52.7694 131.545 53.9087C132.233 55.0428 132.579 56.3245 132.579 57.7592C132.579 59.2019 132.233 60.4915 131.545 61.6308C130.862 62.7649 129.915 63.651 128.707 64.2893C127.505 64.9222 126.138 65.2387 124.614 65.2387ZM124.614 61.7891C125.69 61.7891 126.571 61.4251 127.262 60.6919C127.958 59.9614 128.306 58.983 128.306 57.7592C128.306 56.5355 127.958 55.5623 127.262 54.8371C126.571 54.1065 125.69 53.74 124.614 53.74C123.53 53.74 122.636 54.1065 121.935 54.8371C121.23 55.5623 120.88 56.5355 120.88 57.7592C120.88 58.983 121.23 59.9614 121.935 60.6919C122.636 61.4251 123.53 61.7891 124.614 61.7891Z" fill="white"/>
<path d="M147.724 65.0276L144.085 59.7635H140.055V65.0276H135.677V46.1233H143.863C145.535 46.1233 146.988 46.4055 148.22 46.9672C149.457 47.5237 150.406 48.3149 151.068 49.3408C151.735 50.3694 152.07 51.5826 152.07 52.9803C152.07 54.3887 151.733 55.6018 151.058 56.6199C150.382 57.6326 149.425 58.4106 148.188 58.9512L152.429 65.0276H147.724ZM147.65 52.9803C147.65 51.9201 147.305 51.1078 146.616 50.5435C145.933 49.9738 144.934 49.689 143.62 49.689H140.055V56.2823H143.62C144.934 56.2823 145.933 55.9948 146.616 55.4172C147.305 54.8423 147.65 54.03 147.65 52.9803Z" fill="white"/>
<path d="M162.149 65.2387C160.614 65.2387 159.24 64.9222 158.024 64.2893C156.806 63.651 155.857 62.7649 155.176 61.6308C154.493 60.4915 154.153 59.2019 154.153 57.7592C154.153 56.3245 154.493 55.0428 155.176 53.9087C155.857 52.7694 156.806 51.8806 158.024 51.2398C159.24 50.6015 160.614 50.2798 162.149 50.2798C163.674 50.2798 165.04 50.6015 166.242 51.2398C167.45 51.8806 168.397 52.7694 169.08 53.9087C169.768 55.0428 170.114 56.3245 170.114 57.7592C170.114 59.2019 169.768 60.4915 169.08 61.6308C168.397 62.7649 167.45 63.651 166.242 64.2893C165.04 64.9222 163.674 65.2387 162.149 65.2387ZM162.149 61.7891C163.225 61.7891 164.106 61.4251 164.797 60.6919C165.493 59.9614 165.841 58.983 165.841 57.7592C165.841 56.5355 165.493 55.5623 164.797 54.8371C164.106 54.1065 163.225 53.74 162.149 53.74C161.065 53.74 160.171 54.1065 159.47 54.8371C158.766 55.5623 158.415 56.5355 158.415 57.7592C158.415 58.983 158.766 59.9614 159.47 60.6919C160.171 61.4251 161.065 61.7891 162.149 61.7891Z" fill="white"/>
<path d="M179.836 65.2387C178.301 65.2387 176.927 64.9222 175.711 64.2893C174.493 63.651 173.544 62.7649 172.863 61.6308C172.18 60.4915 171.84 59.2019 171.84 57.7592C171.84 56.3245 172.18 55.0428 172.863 53.9087C173.544 52.7694 174.493 51.8806 175.711 51.2398C176.927 50.6015 178.301 50.2798 179.836 50.2798C181.361 50.2798 182.727 50.6015 183.929 51.2398C185.137 51.8806 186.084 52.7694 186.767 53.9087C187.455 55.0428 187.801 56.3245 187.801 57.7592C187.801 59.2019 187.455 60.4915 186.767 61.6308C186.084 62.7649 185.137 63.651 183.929 64.2893C182.727 64.9222 181.361 65.2387 179.836 65.2387ZM179.836 61.7891C180.912 61.7891 181.793 61.4251 182.484 60.6919C183.18 59.9614 183.528 58.983 183.528 57.7592C183.528 56.5355 183.18 55.5623 182.484 54.8371C181.793 54.1065 180.912 53.74 179.836 53.74C178.752 53.74 177.858 54.1065 177.157 54.8371C176.453 55.5623 176.102 56.5355 176.102 57.7592C176.102 58.983 176.453 59.9614 177.157 60.6919C177.858 61.4251 178.752 61.7891 179.836 61.7891Z" fill="white"/>
<path d="M209.212 50.2798C211.032 50.2798 212.478 50.8178 213.548 51.8938C214.616 52.9646 215.152 54.5707 215.152 56.7149V65.0277H210.943V57.3584C210.943 56.2059 210.703 55.3487 210.225 54.7843C209.745 54.2147 209.067 53.9298 208.189 53.9298C207.198 53.9298 206.412 54.2516 205.837 54.8898C205.259 55.5307 204.972 56.4801 204.972 57.7381V65.0277H200.762V57.3584C200.762 55.0744 199.845 53.9298 198.009 53.9298C197.039 53.9298 196.263 54.2516 195.688 54.8898C195.111 55.5307 194.823 56.4801 194.823 57.7381V65.0277H190.604V50.5013H194.633V52.1681C195.174 51.5563 195.836 51.0894 196.617 50.7651C197.397 50.4433 198.254 50.2798 199.191 50.2798C200.217 50.2798 201.145 50.4855 201.976 50.8916C202.804 51.2925 203.474 51.8833 203.98 52.6639C204.571 51.9044 205.32 51.3189 206.227 50.9022C207.14 50.4881 208.136 50.2798 209.212 50.2798Z" fill="white"/>
</svg>
