<svg width="28" height="28" viewBox="0 0 28 28" fill="none" xmlns="http://www.w3.org/2000/svg">
<circle cx="14" cy="14" r="14" fill="white"/>
<path d="M11.2237 7.33574C11.1522 7.26016 11.0964 7.17125 11.0593 7.07409C11.0223 6.97693 11.0047 6.87342 11.0077 6.76947C11.0106 6.66552 11.034 6.56317 11.0765 6.46826C11.119 6.37335 11.1798 6.28774 11.2553 6.21632C11.3309 6.1449 11.4198 6.08906 11.517 6.052C11.6141 6.01494 11.7177 5.99738 11.8216 6.00032C11.9255 6.00326 12.0279 6.02664 12.1228 6.06914C12.2177 6.11163 12.3033 6.17241 12.3747 6.24799L19.1039 13.373C19.2429 13.52 19.3203 13.7146 19.3203 13.9169C19.3203 14.1191 19.2429 14.3138 19.1039 14.4607L12.3747 21.5865C12.3038 21.6638 12.2182 21.7261 12.1229 21.77C12.0277 21.8139 11.9247 21.8384 11.8198 21.8421C11.715 21.8459 11.6105 21.8287 11.5124 21.7917C11.4143 21.7547 11.3245 21.6986 11.2482 21.6266C11.172 21.5546 11.1108 21.4681 11.0682 21.3723C11.0256 21.2764 11.0025 21.1731 11.0003 21.0682C10.998 20.9633 11.0166 20.8591 11.0549 20.7615C11.0933 20.6639 11.1506 20.5748 11.2237 20.4996L17.4398 13.9169L11.2237 7.33574Z" fill="#15412E"/>
</svg>
