<svg width="66" height="65" viewBox="0 0 66 65" fill="none" xmlns="http://www.w3.org/2000/svg">
<path d="M4.36952 43.9435L55.1701 52.7313L60.8645 21.0557L10.0647 12.2593L4.36952 43.9435ZM56.1036 55.2336C56.0408 55.2336 55.9771 55.2243 55.9134 55.2158L2.81852 46.0381C2.51953 45.9752 2.24773 45.8028 2.06596 45.5582C1.89353 45.3042 1.82133 44.9865 1.87569 44.6875L7.9786 10.7177C8.09666 10.0917 8.69464 9.67462 9.32064 9.78334L62.4155 18.9602C62.7145 19.0154 62.9871 19.187 63.168 19.441C63.3405 19.6949 63.4127 20.0126 63.3583 20.3116L57.2469 54.2815C57.156 54.8438 56.6574 55.2336 56.1036 55.2336Z" fill="white"/>
<path d="M48.8677 25.5354C46.655 25.5354 44.6963 27.122 44.2971 29.3712C44.0796 30.5859 44.3514 31.8192 45.0683 32.8444C45.775 33.8594 46.8452 34.5398 48.0607 34.7488C49.2847 34.9662 50.518 34.6944 51.5339 33.9775C52.5489 33.27 53.22 32.2006 53.4383 30.9851C53.6557 29.7611 53.3839 28.5278 52.667 27.5119C51.9595 26.496 50.8901 25.825 49.6746 25.6076C49.4028 25.5626 49.1301 25.5354 48.8677 25.5354ZM48.8855 37.1424C48.4778 37.1424 48.0692 37.1058 47.6615 37.0336C45.8294 36.716 44.2334 35.7009 43.164 34.1678C42.1022 32.6448 41.6852 30.7948 42.0122 28.9627C42.6832 25.1812 46.2923 22.6423 50.0738 23.3227C51.9051 23.6395 53.5011 24.6647 54.5713 26.1877C55.6322 27.7115 56.0493 29.5522 55.7231 31.3843C55.4055 33.2156 54.3904 34.8116 52.8573 35.8819C51.6783 36.716 50.2912 37.1424 48.8855 37.1424Z" fill="white"/>
<path d="M37.6409 52.0415C37.2867 52.0415 36.9241 51.8691 36.6973 51.5522L18.3529 25.8436L5.71134 34.5219C5.18556 34.8846 4.46018 34.7487 4.09749 34.222C3.73479 33.6963 3.8707 32.9709 4.39647 32.6082L17.9715 23.2861C18.4973 22.9234 19.2048 23.0499 19.5769 23.5672L38.5931 50.2009C38.9558 50.7266 38.8377 51.452 38.3205 51.824C38.1124 51.9693 37.8762 52.0415 37.6409 52.0415Z" fill="white"/>
<path d="M51.4973 54.436C51.1253 54.436 50.7719 54.2636 50.5451 53.9459L39.7994 38.8929L32.5991 43.844C32.0733 44.2067 31.348 44.0708 30.9844 43.5451C30.6217 43.0184 30.7585 42.293 31.2843 41.9304L39.4274 36.3354C39.9447 35.9727 40.6607 36.0993 41.0234 36.6165L52.4316 52.5945C52.8122 53.1211 52.6941 53.8465 52.1683 54.2177C51.9687 54.363 51.7241 54.436 51.4973 54.436Z" fill="white"/>
<mask id="mask0_1_506" style="mask-type:luminance" maskUnits="userSpaceOnUse" x="0" y="22" width="9" height="15">
<path d="M0 22.1353H8.19751V36.0517H0V22.1353Z" fill="white"/>
</mask>
<g mask="url(#mask0_1_506)">
<path d="M4.81349 36.0448C4.35142 36.0448 3.90634 35.7552 3.72542 35.2838L0.188538 25.7349C0.0798151 25.4444 0.0891584 25.1182 0.225062 24.8371C0.351621 24.5559 0.597097 24.3376 0.88674 24.2382L6.50974 22.2158C7.10771 21.9984 7.77873 22.3067 7.99618 22.914C8.20513 23.5222 7.8968 24.1839 7.28948 24.4013L2.77325 26.0245L5.90157 34.476C6.12836 35.0748 5.82003 35.7459 5.22205 35.9633C5.0853 36.0177 4.9494 36.0448 4.81349 36.0448Z" fill="white"/>
</g>
<path d="M58.3345 42.8462C57.8538 42.8462 57.4095 42.5565 57.2371 42.0758C57.0281 41.4769 57.3365 40.8153 57.9446 40.5978L62.46 38.9746L59.3224 30.5231C59.1049 29.915 59.4048 29.2533 60.0121 29.0265C60.61 28.7997 61.2819 29.108 61.4994 29.7069L65.0447 39.2643C65.1535 39.5548 65.145 39.8809 65.0082 40.1621C64.8816 40.4432 64.637 40.6615 64.3465 40.7609L58.7244 42.7833C58.597 42.8283 58.4704 42.8462 58.3345 42.8462Z" fill="white"/>
<path d="M13.2921 58.9158C12.8301 58.9158 12.3858 58.6253 12.2041 58.1539L7.81523 46.3108C7.58844 45.712 7.89677 45.0409 8.50409 44.8142C9.10291 44.5874 9.76459 44.905 9.99138 45.5039L13.9903 56.2767L33.8322 49.1945C34.4395 48.977 35.1012 49.2939 35.3195 49.8927C35.5369 50.5 35.2193 51.1625 34.6119 51.38L13.682 58.8521C13.5554 58.8886 13.428 58.9158 13.2921 58.9158Z" fill="white"/>
<path d="M56.33 20.2487C55.8585 20.2487 55.4143 19.9582 55.2419 19.4953L51.2429 8.72245L31.3926 15.8047C30.7938 16.0222 30.1321 15.7053 29.9146 15.0972C29.6963 14.4992 30.014 13.8367 30.6213 13.6192L51.5419 6.14709C52.1407 5.92964 52.8024 6.23797 53.0207 6.83595L57.418 18.6799C57.6448 19.2872 57.3365 19.9489 56.7385 20.1757C56.6026 20.2301 56.4659 20.2487 56.33 20.2487Z" fill="white"/>
<mask id="mask1_1_506" style="mask-type:luminance" maskUnits="userSpaceOnUse" x="17" y="49" width="24" height="16">
<path d="M17.7651 49.9683H40.8143V65H17.7651V49.9683Z" fill="white"/>
</mask>
<g mask="url(#mask1_1_506)">
<path d="M28.7715 65C28.509 65 28.2457 64.91 28.0282 64.7375L18.1982 56.6394C17.7089 56.2309 17.6359 55.497 18.0445 55.0069C18.4522 54.5083 19.1869 54.4446 19.6761 54.8438L28.6271 62.2165L38.6924 50.455C39.1095 49.9742 39.8442 49.9105 40.3343 50.3276C40.8235 50.7446 40.8779 51.4793 40.4608 51.9694L29.6514 64.6016C29.4162 64.8641 29.0891 65 28.7715 65Z" fill="white"/>
</g>
<path d="M25.6798 14.9528C25.408 14.9528 25.1353 14.8526 24.9179 14.6716C24.4371 14.2546 24.3742 13.5199 24.7913 13.0298L35.6007 0.406904C36.0178 -0.0738537 36.7431 -0.136709 37.2239 0.261657L47.0539 8.35979C47.5432 8.7675 47.6162 9.50222 47.2077 9.99233C46.8 10.4909 46.0746 10.5546 45.5751 10.1461L36.6251 2.78266L26.5597 14.5442C26.3236 14.8075 26.0059 14.9528 25.6798 14.9528Z" fill="white"/>
<path d="M45.2491 62.688C45.1769 62.688 45.1132 62.688 45.0495 62.6787L32.4266 60.4847C31.7921 60.3845 31.3657 59.7772 31.4744 59.1512C31.5832 58.5167 32.1905 58.0903 32.8165 58.2083L44.3063 60.1942L45.7392 52.2685C45.8479 51.634 46.4459 51.217 47.0812 51.3342C47.7157 51.4429 48.1328 52.0511 48.0241 52.6856L46.3915 61.7359C46.2921 62.2982 45.802 62.688 45.2491 62.688Z" fill="white"/>
<path d="M18.3614 13.6829C18.2892 13.6829 18.2255 13.6735 18.1533 13.665C17.5179 13.547 17.1009 12.9481 17.2096 12.3136L18.8421 3.26334C18.9509 2.62884 19.559 2.22028 20.1842 2.32051L32.8342 4.506C33.4602 4.61473 33.8866 5.22204 33.7779 5.84805C33.6692 6.48255 33.0882 6.90894 32.4359 6.80022L20.9189 4.80499L19.5038 12.7214C19.3951 13.2837 18.9058 13.6829 18.3614 13.6829Z" fill="white"/>
</svg>
