<svg width="68" height="65" viewBox="0 0 68 65" fill="none" xmlns="http://www.w3.org/2000/svg">
<mask id="mask0_1_530" style="mask-type:luminance" maskUnits="userSpaceOnUse" x="0" y="34" width="19" height="31">
<path d="M0 34.9341H18.684V65.0001H0V34.9341Z" fill="white"/>
</mask>
<g mask="url(#mask0_1_530)">
<path fill-rule="evenodd" clip-rule="evenodd" d="M3.02577 65.0009C1.36208 65.0009 0.00439453 63.6415 0.00439453 61.976V38.0996C0.00439453 36.4341 1.3568 35.0747 3.02577 35.0747H8.76163V50.0409C8.76163 50.9026 10.0701 50.9026 10.0701 50.0409V35.0747H15.6591C17.3272 35.0747 18.6752 36.4262 18.6752 38.0996V61.976C18.6752 63.6415 17.3228 65.0009 15.6538 65.0009H3.02577ZM12.5463 61.692C9.19162 61.692 9.19778 56.5919 12.5463 56.5919C15.8939 56.5919 15.9 61.692 12.5463 61.692Z" fill="white"/>
</g>
<path fill-rule="evenodd" clip-rule="evenodd" d="M41.9308 63.1059H20.7909C20.4796 63.1059 18.1907 61.9162 17.7431 61.6972C17.5189 61.5882 17.3721 61.3587 17.3721 61.1072V38.9077C17.3721 36.9907 25.9403 38.6403 25.6439 23.5273C25.6158 22.1353 25.6712 20.5851 26.7176 19.8526C27.3665 19.3997 28.2608 19.3883 29.3626 19.8201C31.7394 20.7539 33.5227 24.3741 33.5939 28.419C33.6537 31.6075 33.5122 34.9762 31.342 38.2526H47.5471C47.7063 38.2526 47.8355 38.2974 47.9358 38.3695C49.4597 38.7714 50.5843 40.1607 50.5843 41.813C50.5843 43.2269 49.7604 44.4483 48.5689 45.0225C50.5843 46.9122 49.7657 50.2844 47.125 51.0442C49.0552 53.18 47.767 56.6349 44.9012 56.9673C46.965 59.4417 44.83 63.1226 42.0891 63.1226C42.0329 63.1226 41.9792 63.1165 41.9308 63.1059Z" fill="white"/>
<path fill-rule="evenodd" clip-rule="evenodd" d="M48.2557 31.2909C48.2557 32.2942 48.5072 34.1469 46.8163 34.1469C45.1526 34.1469 45.3768 32.3452 45.3768 31.4219C42.4548 31.079 40.3251 29.2763 39.881 26.1143C39.6172 24.2299 42.4671 23.8377 42.7309 25.7133C43.2778 29.6026 48.0412 28.7681 49.099 27.8351C50.9315 26.2198 50.7003 22.5978 46.6562 22.1415C39.6321 21.3501 39.0914 13.8723 42.9841 11.1455C43.6691 10.6653 44.4948 10.3224 45.3768 10.121V8.75369C45.3768 6.85522 48.2557 6.85522 48.2557 8.75369V9.97068C50.3784 10.2239 51.8583 11.1208 52.9153 12.8927C55.0828 16.5252 52.4994 17.5074 51.4609 16.6817C50.2536 15.7215 51.5321 12.737 46.7793 12.8153C44.9415 12.8452 43.4731 13.9804 43.4731 16.0477C43.4731 18.0834 45.142 19.0665 46.9763 19.2731C54.8753 20.1639 54.8894 29.8294 48.2557 31.2909Z" fill="white"/>
<mask id="mask1_1_530" style="mask-type:luminance" maskUnits="userSpaceOnUse" x="26" y="0" width="42" height="41">
<path d="M26.5625 0H67.5322V40.5617H26.5625V0Z" fill="white"/>
</mask>
<g mask="url(#mask1_1_530)">
<path fill-rule="evenodd" clip-rule="evenodd" d="M53.202 40.3877C51.5937 40.3877 51.2042 38.1234 52.7236 37.5914C59.862 35.0897 64.6473 28.3066 64.6473 20.7373C64.6473 10.8897 56.6463 2.87814 46.811 2.87814C38.5673 2.87814 31.443 8.46716 29.4847 16.4875C29.0345 18.3332 26.2382 17.643 26.6867 15.8043C28.9633 6.49394 37.2395 0.000976562 46.811 0.000976562C58.2361 0.000976562 67.5263 9.3034 67.5263 20.7435C67.5263 29.4005 62.2265 37.9739 53.6311 40.3314C53.4922 40.3692 53.3462 40.3877 53.202 40.3877Z" fill="white"/>
</g>
</svg>
