<svg width="72" height="71" viewBox="0 0 72 71" fill="none" xmlns="http://www.w3.org/2000/svg">
<mask id="mask0_1_499" style="mask-type:luminance" maskUnits="userSpaceOnUse" x="0" y="0" width="72" height="71">
<path d="M0 0H71.1779V71H0V0Z" fill="white"/>
</mask>
<g mask="url(#mask0_1_499)">
<path fill-rule="evenodd" clip-rule="evenodd" d="M29.2422 0C13.0965 0 0.00732422 13.0891 0.00732422 29.2349C0.00732422 45.3806 13.0965 58.4697 29.2422 58.4697C32.7177 58.4697 36.0504 57.8617 39.1431 56.7487C38.7539 56.1407 38.575 55.4632 38.4721 54.7319C38.4425 54.5188 38.4156 54.136 38.36 53.8932C38.1737 53.7208 37.8549 53.5086 37.6807 53.3714C36.9744 52.8181 36.3943 52.2036 36.0829 51.3436C35.7705 50.4807 35.828 49.642 36.0171 48.7652C36.0616 48.5567 36.1709 48.1814 36.1978 47.9367C36.1042 47.7504 35.9207 47.4946 35.8243 47.3454C35.4304 46.7309 35.1088 46.1285 34.98 45.3982C34.9058 44.9774 34.9105 44.5706 34.9763 44.1748H13.4329C13.4329 35.4435 20.5108 28.3655 29.2422 28.3655C33.2015 28.3655 36.8197 29.8215 39.5936 32.2266C40.1534 31.6445 40.8457 31.3146 41.6168 31.0625C41.8234 30.9948 42.1951 30.9031 42.4259 30.8049C42.5621 30.5926 42.7169 30.2423 42.8207 30.0477C43.2414 29.2562 43.7428 28.5778 44.5362 28.1199C45.3286 27.6621 46.1664 27.5713 47.0608 27.6028C47.2776 27.6102 47.6576 27.65 47.9079 27.6371C48.1108 27.4823 48.3731 27.208 48.539 27.0597C49.2063 26.4619 49.9125 25.9985 50.8115 25.84C51.7105 25.6815 52.5326 25.8752 53.3639 26.2089C53.5706 26.2914 53.9116 26.46 54.1545 26.536C54.3945 26.4628 54.7383 26.2941 54.9385 26.2135C55.7689 25.8789 56.5864 25.6769 57.4891 25.8363C57.7801 25.8873 58.0516 25.9707 58.3074 26.081C56.7337 11.4181 44.3221 0 29.2422 0ZM50.5029 63.6375L47.0756 71L44.1237 65.9212L38.3368 66.9323L42.1923 58.6523C42.2785 58.6801 42.361 58.7088 42.4314 58.7385C42.5677 58.9498 42.7224 59.2992 42.8253 59.492C43.2461 60.2816 43.7456 60.96 44.5371 61.4179C45.3295 61.8757 46.1664 61.9684 47.0608 61.9387C47.2776 61.9313 47.6586 61.8914 47.9097 61.9044C48.1108 62.0573 48.375 62.3335 48.539 62.4809C49.1275 63.011 49.7457 63.4364 50.5029 63.6375ZM66.9498 58.3872L69.9619 65.3808L64.2074 64.202L61.1101 69.1937L58.5827 63.3261C59.0044 63.1065 59.3881 62.8155 59.7597 62.4827C59.9256 62.3335 60.1888 62.0592 60.3909 61.9044C60.642 61.8914 61.022 61.9313 61.238 61.9387C62.1333 61.9702 62.9701 61.8803 63.7635 61.4216C64.5559 60.9637 65.0573 60.2853 65.479 59.4938C65.5819 59.2992 65.7366 58.9498 65.8729 58.7366C66.1036 58.6384 66.4762 58.5466 66.682 58.479C66.7728 58.4493 66.8618 58.4187 66.9498 58.3872ZM70.9888 44.5539C71.1723 45.5947 69.9397 46.502 69.7589 47.5233C69.5893 48.4853 70.3076 49.6698 69.9916 50.5373C69.6737 51.4094 68.3558 51.858 67.8729 52.6939C67.3891 53.5308 67.657 54.8969 67.0629 55.6059C66.4697 56.3131 65.0786 56.288 64.3363 56.9127C63.6004 57.5309 63.3881 58.9053 62.58 59.3724C61.7885 59.8303 60.4826 59.3326 59.5716 59.6634C58.6754 59.9878 58.0062 61.2075 57.0767 61.3706C56.1471 61.5346 55.1017 60.618 54.1489 60.6199C53.1785 60.6208 52.122 61.5346 51.2221 61.3752C50.3027 61.213 49.6336 59.9943 48.7299 59.6644C47.8189 59.3316 46.5204 59.8312 45.7215 59.3687C44.9199 58.9053 44.7048 57.5309 43.9634 56.909C43.2238 56.2899 41.8327 56.3186 41.2349 55.6078C40.6418 54.9016 40.9115 53.541 40.423 52.6958C39.9439 51.8663 38.6269 51.4177 38.3081 50.5363C37.9958 49.6753 38.7159 48.4965 38.5444 47.5224C38.3869 46.6262 37.4582 45.8254 37.3109 44.9876C37.1274 43.9468 38.36 43.0395 38.5398 42.0182C38.7094 41.0571 37.9911 39.8708 38.3081 39.0042C38.626 38.1321 39.9439 37.6826 40.4268 36.8476C40.9105 36.0107 40.6427 34.6455 41.2368 33.9356C41.8299 33.2284 43.2211 33.2534 43.9634 32.6297C44.6993 32.0106 44.9115 30.6352 45.7197 30.1691C46.5112 29.7122 47.8161 30.2089 48.7281 29.8781C49.6243 29.5537 50.2934 28.3349 51.223 28.1709C52.1526 28.0069 53.198 28.9235 54.1508 28.9225C55.1202 28.9207 56.1767 28.0078 57.0776 28.1663C57.996 28.3285 58.6661 29.5481 59.5697 29.8781C60.4808 30.2098 61.7792 29.7112 62.5781 30.1728C63.3798 30.6362 63.5948 32.0115 64.3363 32.6325C65.0749 33.2516 66.4669 33.2229 67.0647 33.9337C67.6579 34.6409 67.3882 36.0005 67.8766 36.8457C68.3558 37.6743 69.6718 38.1238 69.9916 39.0051C70.3039 39.8661 69.5828 41.045 69.7552 42.0191C69.9128 42.9153 70.8414 43.717 70.9888 44.5539ZM54.1498 32.0996C57.6485 32.0996 60.8163 33.5176 63.1101 35.8105C65.403 38.1043 66.821 41.2721 66.821 44.7707C66.821 48.2703 65.403 51.4381 63.1101 53.731C60.8163 56.0239 57.6485 57.4428 54.1498 57.4428C50.6512 57.4428 47.4825 56.0239 45.1896 53.731C42.8967 51.4381 41.4777 48.2694 41.4777 44.7707C41.4777 41.2721 42.8967 38.1043 45.1896 35.8105C47.4825 33.5176 50.6512 32.0996 54.1498 32.0996ZM61.4363 37.4843C63.301 39.349 64.4549 41.9255 64.4549 44.7707C64.4549 47.616 63.301 50.1925 61.4363 52.0572C59.5716 53.9219 56.9951 55.0758 54.1498 55.0758C51.3046 55.0758 48.7281 53.9219 46.8634 52.0572C44.9986 50.1925 43.8448 47.616 43.8448 44.7707C43.8448 41.9255 44.9986 39.349 46.8634 37.4843C48.7281 35.6196 51.3046 34.4657 54.1498 34.4657C56.9951 34.4657 59.5716 35.6196 61.4363 37.4843ZM54.1498 37.159L56.098 41.9283L61.2361 42.3073L57.3028 45.6345L58.5299 50.6383L54.1498 47.9256L49.7707 50.6383L50.9969 45.6345L47.0635 42.3073L52.2017 41.9283L54.1498 37.159ZM29.2422 10.8991C33.6565 10.8991 37.2358 14.4784 37.2358 18.8927C37.2358 23.3071 33.6565 26.8864 29.2422 26.8864C24.8279 26.8864 21.2495 23.3071 21.2495 18.8927C21.2495 14.4784 24.8279 10.8991 29.2422 10.8991Z" fill="white"/>
</g>
</svg>
