<svg width="65" height="75" viewBox="0 0 65 75" fill="none" xmlns="http://www.w3.org/2000/svg">
<g filter="url(#filter0_d_1_492)">
<mask id="mask0_1_492" style="mask-type:luminance" maskUnits="userSpaceOnUse" x="4" y="0" width="57" height="67">
<path d="M4 0H60.3638V67H4V0Z" fill="white"/>
</mask>
<g mask="url(#mask0_1_492)">
<path d="M45.2407 14.4155C46.7587 14.4155 47.9844 13.1898 47.9844 11.6718C47.9844 10.1538 46.7587 8.92811 45.2407 8.92811C43.7219 8.92811 42.4961 10.1538 42.4961 11.6718C42.4961 13.1898 43.7219 14.4155 45.2407 14.4155ZM43.3746 10.8299C43.5578 10.4827 43.8135 10.1721 44.1615 10.0073C44.4904 9.82406 44.8926 9.7691 45.2407 9.8607C43.8684 10.2088 43.2098 11.5985 43.8684 12.8792C43.5762 12.6593 43.3563 12.3488 43.2647 11.964C43.1731 11.5985 43.2281 11.1963 43.3746 10.8299ZM60.3637 65.0476C60.3637 66.1154 59.4983 66.9808 58.4305 66.9808C57.3626 66.9808 56.4972 66.1154 56.4972 65.0476C56.4972 63.9798 57.3626 63.1144 58.4305 63.1144C59.4983 63.1144 60.3637 63.9798 60.3637 65.0476ZM56.198 59.8813C56.198 60.8077 55.4469 61.5589 54.5204 61.5589C53.5939 61.5589 52.8428 60.8077 52.8428 59.8813C52.8428 58.9548 53.5939 58.2036 54.5204 58.2036C55.4469 58.2036 56.198 58.9548 56.198 59.8813ZM51.1852 22.9222C52.9788 22.9222 54.4419 21.4767 54.4419 19.6839C54.4419 17.8728 52.9788 16.4281 51.1852 16.4281C49.3933 16.4281 47.9294 17.8728 47.9294 19.6839C47.9294 21.4767 49.3933 22.9222 51.1852 22.9222ZM51.1852 17.0684C52.6308 17.0684 53.8015 18.2392 53.8015 19.6839C53.8015 21.1111 52.6308 22.3002 51.1852 22.3002C49.7405 22.3002 48.5698 21.1111 48.5698 19.6839C48.5698 18.2392 49.7405 17.0684 51.1852 17.0684ZM35.1427 22.6108C35.1427 24.4768 36.6607 25.9957 38.5267 25.9957C40.4111 25.9957 41.9108 24.4768 41.9108 22.6108C41.9108 20.7456 40.4111 19.2267 38.5267 19.2267C36.6607 19.2267 35.1427 20.7456 35.1427 22.6108ZM36.8439 24.0746C36.4784 23.8365 36.2035 23.4343 36.1119 22.9589C36.002 22.5017 36.0753 22.0071 36.2402 21.5683C36.46 21.1478 36.7889 20.7639 37.2094 20.5441C37.6125 20.3242 38.1062 20.2693 38.5267 20.3792C36.8256 20.7814 36.0203 22.52 36.8439 24.0746ZM49.2755 18.7583C49.4675 18.3849 49.7562 18.0534 50.1261 17.8667C50.4934 17.6704 50.92 17.6337 51.2916 17.7323C49.8347 18.1589 49.1822 19.5731 49.8278 20.9515C49.5076 20.7386 49.2563 20.3914 49.1612 19.9866C49.0566 19.5853 49.1211 19.1491 49.2755 18.7583ZM53.5459 51.5691C53.2711 53.3618 51.7348 54.6792 49.942 54.6792H43.1182C44.3072 53.2519 44.8743 51.5324 44.9659 49.9412C45.0025 49.2092 44.7469 48.5139 44.2523 48.0018C43.7585 47.4714 43.0632 47.1783 42.3321 47.1783C42.1856 47.1783 42.0573 47.1783 41.9108 47.2149C41.1247 47.3249 40.3562 47.3981 39.6059 47.3981C37.4659 47.3981 35.4166 46.8861 33.4232 45.8069L31.3556 32.3799L47.5822 30.8977H56.7284L53.5459 51.5691ZM17.1426 35.38L20.4716 34.081L20.3617 33.7879L7.44676 0.824424C7.22779 0.275687 6.62409 0.0192028 6.09368 0.220726L4.7214 0.769463C4.17266 0.970114 3.91618 1.57381 4.1177 2.12255L17.0326 35.0869L17.1426 35.38ZM9.49602 13.5928C8.65416 11.3612 7.79485 9.12876 7.13619 6.82389C8.21534 8.96475 9.11129 11.1963 10.0081 13.3913C10.8491 15.6412 11.7093 17.8728 12.3679 20.1785C11.2705 18.0377 10.392 15.8061 9.49602 13.5928ZM50.6199 64.4683C50.6199 65.776 49.5599 66.836 48.2513 66.836C46.9436 66.836 45.8837 65.776 45.8837 64.4683C45.8837 63.1606 46.9436 62.0998 48.2513 62.0998C49.5599 62.0998 50.6199 63.1606 50.6199 64.4683ZM46.3792 58.2036C46.3792 57.4752 46.9698 56.8846 47.6982 56.8846C48.4267 56.8846 49.0173 57.4752 49.0173 58.2036C49.0173 58.9321 48.4267 59.5227 47.6982 59.5227C46.9698 59.5227 46.3792 58.9321 46.3792 58.2036ZM35.6103 11.7268C35.7255 11.5069 35.8956 11.3115 36.1154 11.2042C36.3327 11.0908 36.5857 11.0751 36.8011 11.1423C35.9689 11.4336 35.6199 12.1891 35.9523 13.0074C35.537 12.7797 35.4097 12.1813 35.6103 11.7268ZM42.3321 48.5506C42.2588 48.5506 42.1856 48.5506 42.1123 48.5689C41.2704 48.6971 40.4294 48.7704 39.6059 48.7704C37.5392 48.7704 35.5632 48.3307 33.6788 47.4714C30.2215 45.9168 27.0024 42.9533 23.819 38.5808L22.575 35.4158C22.4293 35.0503 22.0812 34.813 21.6973 34.813C21.5691 34.813 21.4592 34.8304 21.3493 34.8854L17.051 36.5691C16.5572 36.7514 16.3007 37.3002 16.5022 37.7948L17.7463 40.959C11.7642 46.9227 11.9291 53.8373 13.8493 57.9899C15.2032 60.9168 18.0202 63.7704 21.8256 63.7704C23.4352 63.7704 25.2279 63.2766 27.149 62.0326C28.1182 62.4348 29.0874 62.618 30.0209 62.618C34.1368 62.618 37.5392 59.1607 37.5209 56.2887C39.0755 56.0139 40.2645 55.4286 41.1614 54.6792C42.8259 53.3435 43.5029 51.4408 43.5945 49.8496C43.6303 49.1176 43.0449 48.5506 42.3321 48.5506ZM16.996 56.1605C15.4231 53.5991 15.9352 50.1602 17.5814 48.4407C16.6122 53.8007 21.3493 58.1914 23.7274 59.1973C20.2335 59.6178 18.1668 58.0449 16.996 56.1605ZM26.2338 54.9348C26.2338 54.9348 27.5878 55.959 29.0508 57.1123C25.1547 57.7151 20.7822 52.0262 21.8073 46.7761C23.6908 51.6607 27.094 54.2395 31.5022 55.1913C30.8985 55.5568 28.0083 56.3071 26.2338 54.9348ZM34.4841 52.2644C28.4654 53.0687 24.8799 48.5323 24.4594 44.5812C26.0689 46.7029 29.4172 49.9778 34.2101 50.9654C35.3809 51.2219 36.6424 51.3309 37.9963 51.2576C36.734 51.7889 35.5632 52.1178 34.4841 52.2644ZM29.2916 29.0674C29.2916 28.0571 30.1107 27.2388 31.121 27.2388H56.731C57.7413 27.2388 58.5604 28.0571 58.5604 29.0674C58.5604 30.0785 57.7413 30.8968 56.731 30.8968H31.121C30.1107 30.8968 29.2916 30.0785 29.2916 29.0674ZM36.624 14.1965C37.6857 14.1965 38.5634 13.3363 38.5634 12.2755C38.5634 11.1963 37.6857 10.3362 36.624 10.3362C35.5632 10.3362 34.7039 11.1963 34.7039 12.2755C34.7039 13.3363 35.5632 14.1965 36.624 14.1965ZM36.624 10.7942C37.4476 10.7942 38.1062 11.452 38.1062 12.2755C38.1062 13.0807 37.4476 13.7394 36.624 13.7394C35.8197 13.7394 35.161 13.0807 35.161 12.2755C35.161 11.452 35.8197 10.7942 36.624 10.7942Z" fill="white"/>
</g>
</g>
<defs>
<filter id="filter0_d_1_492" x="0.0493164" y="0.152344" width="64.3145" height="74.8284" filterUnits="userSpaceOnUse" color-interpolation-filters="sRGB">
<feFlood flood-opacity="0" result="BackgroundImageFix"/>
<feColorMatrix in="SourceAlpha" type="matrix" values="0 0 0 0 0 0 0 0 0 0 0 0 0 0 0 0 0 0 127 0" result="hardAlpha"/>
<feOffset dy="4"/>
<feGaussianBlur stdDeviation="2"/>
<feComposite in2="hardAlpha" operator="out"/>
<feColorMatrix type="matrix" values="0 0 0 0 0 0 0 0 0 0 0 0 0 0 0 0 0 0 0.25 0"/>
<feBlend mode="normal" in2="BackgroundImageFix" result="effect1_dropShadow_1_492"/>
<feBlend mode="normal" in="SourceGraphic" in2="effect1_dropShadow_1_492" result="shape"/>
</filter>
</defs>
</svg>
