<svg width="62" height="62" viewBox="0 0 62 62" fill="none" xmlns="http://www.w3.org/2000/svg">
<mask id="mask0_1_485" style="mask-type:luminance" maskUnits="userSpaceOnUse" x="0" y="0" width="62" height="62">
<path d="M0 0H62V62H0V0Z" fill="white"/>
</mask>
<g mask="url(#mask0_1_485)">
<path fill-rule="evenodd" clip-rule="evenodd" d="M55.532 49.0406C55.532 50.0683 55.4465 51.1016 55.2463 52.1099C55.0791 52.956 54.7861 53.773 54.3179 54.4995C53.894 55.1575 53.333 55.6717 52.6508 56.052C51.8677 56.4871 50.9329 56.6227 50.0489 56.6227C49.1754 56.6227 48.2196 56.5113 47.4284 56.1214C46.7697 55.7985 46.2482 55.3327 45.8583 54.7118C45.4021 53.9861 45.1277 53.1554 44.971 52.3166C44.7644 51.2203 44.6901 50.0869 44.6901 48.972C44.6901 47.9613 44.7773 46.9505 44.9751 45.96C45.1414 45.1277 45.4352 44.3228 45.9019 43.6116C46.3289 42.9585 46.8932 42.441 47.5738 42.0592C48.3552 41.6216 49.2884 41.4836 50.174 41.4836C51.0427 41.4836 51.984 41.6006 52.7679 41.9978C53.4282 42.3336 53.9602 42.8116 54.3615 43.4332C54.82 44.1428 55.0953 44.9654 55.2519 45.7905C55.4529 46.8577 55.532 47.9548 55.532 49.0406ZM38.7307 31.721C44.8104 33.6827 51.6377 25.4475 53.4089 22.3338C57.3226 15.4533 57.874 4.95281 58.9437 0.881638C58.9977 0.670934 58.938 0.453773 58.7822 0.270518C58.6223 0.0921061 58.4084 7.49975e-05 58.1824 0.0162208C40.7812 1.32484 25.9069 10.5651 31.3496 26.7618C31.9276 28.3384 32.7713 29.3072 33.3073 28.1237C34.6377 19.782 40.5003 10.7597 47.1984 6.88304C47.2904 6.83138 47.4107 6.84833 47.4866 6.92664C47.5616 7.00494 47.5641 7.11635 47.4922 7.19385C45.3682 9.44297 40.1693 15.4395 37.4293 22.8408C36.6341 24.9801 36.4428 27.2986 35.8632 29.5235C35.5588 30.6877 35.3941 32.0479 35.2771 33.246C35.0414 35.6751 38.0251 35.726 38.3133 33.5568C38.4772 32.9263 38.6031 32.3539 38.7307 31.721ZM24.9914 29.8166C22.14 31.5846 17.5417 28.2222 16.2161 26.849C13.2897 23.8168 11.6008 18.5089 10.5078 16.5576C10.4521 16.4567 10.4521 16.338 10.5094 16.2242C10.5651 16.112 10.6628 16.0385 10.7798 16.0192C19.8675 14.5071 28.7243 17.3762 28.1059 26.3525C28.022 27.2324 27.72 27.8339 27.2857 27.2962C25.4871 23.1903 21.2762 19.304 17.3262 18.1585C17.2721 18.144 17.2131 18.1682 17.1849 18.2166C17.1566 18.2659 17.1703 18.324 17.218 18.3539C18.6065 19.2403 22.0722 21.6597 24.4683 25.106C25.1617 26.1022 25.5694 27.2664 26.1652 28.3328C26.476 28.8898 26.744 29.5671 26.9644 30.1653C27.41 31.3795 25.8891 31.7799 25.4515 30.707C25.282 30.4035 25.1415 30.1258 24.9914 29.8166ZM61.9928 48.7968C61.9928 46.9473 61.8071 45.0405 61.2565 43.2685C60.798 41.7863 60.0811 40.4123 59.0187 39.2716C57.9919 38.1672 56.7301 37.3849 55.3068 36.8925C53.7197 36.3427 52.0163 36.1433 50.3412 36.1433C48.5716 36.1433 46.7866 36.392 45.1373 37.0548C43.6681 37.6441 42.3724 38.52 41.3132 39.6978C40.2331 40.9007 39.4807 42.3135 38.9914 43.8497C38.4409 45.5773 38.2294 47.4059 38.2294 49.215C38.2294 51.0847 38.407 53.0214 38.9438 54.8184C39.3894 56.3054 40.0918 57.7045 41.1518 58.8508C42.177 59.9609 43.4388 60.7383 44.8629 61.2372C46.4678 61.7999 48.2051 62.0001 49.8996 62.0001C51.6603 62.0001 53.4403 61.7587 55.0824 61.1016C56.5565 60.5122 57.8506 59.6339 58.9097 58.4504C59.9939 57.2395 60.7455 55.8057 61.2315 54.2606C61.7845 52.5015 61.9928 50.6383 61.9928 48.7968ZM36.3492 57.3121C36.3492 56.9384 36.3435 56.5573 36.3088 56.186C36.2862 55.9373 36.2475 55.6749 36.1748 55.436C36.082 55.1559 35.9455 54.9217 35.7098 54.7651C35.516 54.6247 35.2755 54.5673 35.0244 54.5673C34.6401 54.5673 34.2728 54.7716 33.9628 54.9807C33.6302 55.2043 33.2799 55.4085 32.9263 55.5991C32.4613 55.8485 31.9599 56.0463 31.457 56.2078C30.8257 56.4112 30.1282 56.4734 29.4686 56.4734C28.6977 56.4734 27.9364 56.349 27.226 56.0439C26.5745 55.7654 26.0296 55.3391 25.5864 54.7869C25.0632 54.1362 24.7201 53.333 24.4941 52.5346C24.1857 51.4447 24.0913 50.2572 24.0913 49.127C24.0913 48.0509 24.1897 46.9457 24.4666 45.9027C24.6878 45.0679 25.0245 44.2534 25.5331 43.551C25.9682 42.9504 26.5034 42.4685 27.1622 42.1254C27.8379 41.7734 28.5798 41.6329 29.3378 41.6329C29.9901 41.6329 30.6804 41.6975 31.2996 41.9114C31.7993 42.0834 32.3038 42.2925 32.7575 42.5613C33.1039 42.7655 33.455 42.9859 33.7755 43.2281C34.0952 43.4703 34.4803 43.6875 34.8936 43.6875C35.1721 43.6875 35.4337 43.5874 35.646 43.4073C35.8365 43.2435 35.9697 43.0198 36.0626 42.7882C36.1611 42.5153 36.2087 42.2416 36.2337 41.9776C36.266 41.6483 36.2749 41.3124 36.2749 40.9806C36.2749 40.6787 36.2717 40.3719 36.2475 40.0708C36.2289 39.8359 36.1958 39.6034 36.1465 39.3749C36.1102 39.1747 36.0392 38.9592 35.9302 38.7622C35.8051 38.5507 35.642 38.3674 35.4862 38.2052C35.2004 37.9194 34.7992 37.678 34.4625 37.4834C33.9709 37.2114 33.4631 36.995 32.944 36.8174C32.3612 36.6156 31.7573 36.4687 31.1502 36.3597C30.4842 36.2418 29.8101 36.1805 29.1328 36.1805C27.5174 36.1805 25.923 36.4436 24.4239 37.0556C22.9941 37.6384 21.7469 38.495 20.7095 39.6397C19.6189 40.8442 18.8503 42.2763 18.3232 43.8086C17.7088 45.5927 17.4812 47.5019 17.4812 49.3829C17.4812 51.1945 17.6797 53.0504 18.2457 54.7797C18.7252 56.2457 19.4453 57.61 20.4964 58.7499C21.4958 59.8357 22.7043 60.6398 24.084 61.1678C25.5605 61.7321 27.1315 61.9621 28.7098 61.9621C29.5251 61.9621 30.3453 61.8992 31.1486 61.7514C31.8251 61.6271 32.5 61.4592 33.1491 61.2299C33.6682 61.0467 34.1776 60.8255 34.6611 60.5607C34.98 60.3782 35.3594 60.1506 35.604 59.8939C35.7469 59.7518 35.8874 59.5814 35.9964 59.3966C36.1102 59.1923 36.1788 58.9961 36.2216 58.7863C36.2717 58.5868 36.3023 58.3713 36.3217 58.1517C36.3459 57.8748 36.3492 57.5907 36.3492 57.3121ZM6.20652 41.7451H13.9258C14.1922 41.7451 14.4449 41.6596 14.6556 41.4949C14.8623 41.3197 14.9931 41.1122 15.0883 40.891C15.1893 40.6537 15.2433 40.3873 15.2764 40.1322C15.3168 39.8141 15.3257 39.4879 15.3257 39.1691C15.3257 38.8373 15.3184 38.4966 15.2764 38.168C15.2433 37.9186 15.1876 37.6715 15.1029 37.4342C14.9931 37.1686 14.8526 36.9506 14.6508 36.7948C14.4231 36.6325 14.1793 36.555 13.9258 36.555H2.13534C1.58719 36.555 1.08021 36.7222 0.663652 37.0814C0.167975 37.5093 0.00732422 38.143 0.00732422 38.7751V59.3675C0.00732422 59.9996 0.167168 60.6325 0.662845 61.0612C1.08021 61.4212 1.58719 61.5892 2.13534 61.5892H13.9824C14.2496 61.5892 14.5031 61.5068 14.7146 61.3413C14.9196 61.1904 15.0593 60.9772 15.1626 60.7342C15.2635 60.4969 15.3176 60.2305 15.3507 59.9754C15.3927 59.6517 15.4 59.3191 15.4 58.9937C15.4 58.6684 15.3927 58.335 15.3507 58.0112C15.3176 57.7553 15.2635 57.4905 15.1626 57.2532C15.0593 57.0102 14.9148 56.7939 14.7008 56.6348C14.5063 56.4822 14.252 56.3991 13.9824 56.3991H6.20652V51.163H12.5995C12.8473 51.163 13.083 51.0911 13.2881 50.9515C13.5141 50.8086 13.6667 50.593 13.7757 50.3501C13.8798 50.1167 13.9331 49.8552 13.9678 49.6025C14.0114 49.2836 14.0171 48.951 14.0171 48.6289C14.0171 48.3133 14.0082 47.9911 13.9678 47.6779C13.9339 47.4212 13.8814 47.1532 13.7757 46.915C13.6715 46.6793 13.527 46.4751 13.3179 46.3209C13.1234 46.1675 12.8691 46.0843 12.5995 46.0843H6.20652V41.7451Z" fill="white"/>
</g>
</svg>
